<?xml version="1.0" standalone="no"?><!DOCTYPE svg PUBLIC "-//W3C//DTD SVG 1.1//EN" "http://www.w3.org/Graphics/SVG/1.1/DTD/svg11.dtd"><svg t="1720576668008" class="icon" viewBox="0 0 1024 1024" version="1.1" xmlns="http://www.w3.org/2000/svg" p-id="1101" xmlns:xlink="http://www.w3.org/1999/xlink" width="200" height="200"><path d="M528.362 783.771c-149.181 0-270.548-121.368-270.548-270.55 0-149.179 121.368-270.545 270.548-270.545 149.182 0 270.55 121.366 270.55 270.545 0 149.181-121.368 270.55-270.55 270.55z m0-511.095c-132.639 0-240.548 107.908-240.548 240.545 0 132.64 107.91 240.55 240.548 240.55 132.64 0 240.55-107.91 240.55-240.55 0-132.637-107.91-240.545-240.55-240.545zM528.703 98.652l61.225 91.811h-122.33zM467.598 835.984h122.33l-61.225 91.81zM114.192 513.283l91.81-61.225v122.33zM851.523 574.388v-122.33l91.811 61.225z" fill="#1296db" p-id="1102"></path></svg>