<?xml version="1.0" standalone="no"?><!DOCTYPE svg PUBLIC "-//W3C//DTD SVG 1.1//EN" "http://www.w3.org/Graphics/SVG/1.1/DTD/svg11.dtd"><svg t="1720576685239" class="icon" viewBox="0 0 1024 1024" version="1.1" xmlns="http://www.w3.org/2000/svg" p-id="1555" xmlns:xlink="http://www.w3.org/1999/xlink" width="200" height="200"><path d="M810.371459 1024H213.656216C149.144216 1024 96.864865 971.416216 96.864865 906.516757V117.483243C96.864865 52.583784 149.144216 0 213.628541 0H810.343784C874.855784 0 927.135135 52.583784 927.135135 117.483243v789.033514C927.135135 971.416216 874.855784 1024 810.371459 1024zM213.656216 78.322162a39.022703 39.022703 0 0 0-38.939675 39.161081v789.033514c0 10.406054 4.123676 20.341622 11.402378 27.675675 7.306378 7.36173 17.21427 11.485405 27.537297 11.485406H810.343784a39.022703 39.022703 0 0 0 38.939675-39.161081V117.483243A39.022703 39.022703 0 0 0 810.343784 78.322162H213.656216z" fill="#d81e06" p-id="1556"></path><path d="M887.918703 332.108108H136.081297C114.411243 332.108108 96.864865 313.510054 96.864865 290.594595S114.411243 249.081081 136.081297 249.081081h751.837406C909.588757 249.081081 927.135135 267.679135 927.135135 290.594595s-17.546378 41.513514-39.216432 41.513513zM262.918919 498.162162a55.351351 55.351351 0 1 0 110.702703 0 55.351351 55.351351 0 0 0-110.702703 0zM484.324324 498.162162a55.351351 55.351351 0 1 0 110.702703 0 55.351351 55.351351 0 0 0-110.702703 0zM678.054054 498.162162a55.351351 55.351351 0 1 0 110.702703 0 55.351351 55.351351 0 0 0-110.702703 0zM262.918919 747.243243a55.351351 55.351351 0 1 0 110.702703 0 55.351351 55.351351 0 0 0-110.702703 0zM484.324324 747.243243a55.351351 55.351351 0 1 0 110.702703 0 55.351351 55.351351 0 0 0-110.702703 0zM678.054054 747.243243a55.351351 55.351351 0 1 0 110.702703 0 55.351351 55.351351 0 0 0-110.702703 0z" fill="#d81e06" p-id="1557"></path></svg>