<?xml version="1.0" standalone="no"?><!DOCTYPE svg PUBLIC "-//W3C//DTD SVG 1.1//EN" "http://www.w3.org/Graphics/SVG/1.1/DTD/svg11.dtd"><svg t="1720853859100" class="icon" viewBox="0 0 1024 1024" version="1.1" xmlns="http://www.w3.org/2000/svg" p-id="1340" xmlns:xlink="http://www.w3.org/1999/xlink" width="200" height="200"><path d="M507.22905518 680.57485678a16.08935422 16.08935422 0 0 0 9.27099975-17.46283585 129.05820127 129.05820127 0 0 0-7.16172445-26.78288763 57.53906158 57.53906158 0 0 0-11.3312222-19.62116318 36.59346964 36.59346964 0 0 0-9.27099976-3.67896835 14.71587259 14.71587259 0 0 0-9.27099975 1.03011164 59.25591321 59.25591321 0 0 1-29.77511518 5.34676629 38.35937412 38.35937412 0 0 1-26.97909906-12.31227933 48.51332611 48.51332611 0 0 1-8.19183608-53.61482895 14.71587259 14.71587259 0 0 0 2.06022243-6.1806665 8.48615322 8.48615322 0 0 0-1.03011164-7.16172446 52.43755874 52.43755874 0 0 0-22.61339071-19.62116317A40.51770227 40.51770227 0 0 0 378.56327676 515.21750302a60.1879183 60.1879183 0 0 0-13.34239095-2.06022245c-3.09033325 0-5.34676712 1.03011082-9.27099976 5.34676713-2.06022244 3.09033325-4.12044406 5.34676712-5.34676713 7.16172446a46.84552734 46.84552734 0 0 1-17.46283502 22.61339071 55.33168058 55.33168058 0 0 1-28.79405721 8.1918361 44.14761777 44.14761777 0 0 1-26.78288763-9.27099976 49.64154346 49.64154346 0 0 1-15.45166627-22.61339071 36.10294025 36.10294025 0 0 0-5.34676712-8.1918361 9.810582 9.810582 0 0 0-9.27099975-4.12044406c-3.09033325 0-7.16172446 1.03011082-12.31228016 1.03011081a85.54827228 85.54827228 0 0 0-15.45166626 4.12044488c-5.34676712 2.06022244-10.30111057 5.34676712-15.45166543 7.16172447a25.16414172 25.16414172 0 0 0-9.27099975 11.33122136c1.03011082 1.03011082 1.03011082 3.09033325 1.0301108 6.18066651 0 2.06022244 1.03011082 4.12044406 1.03011082 6.1806665a39.73285574 39.73285574 0 0 0 1.03011162 9.27099975 29.43174518 29.43174518 0 0 1 0 13.34239097 82.06551535 82.06551535 0 0 1-3.09033324 15.45166626 58.32390811 58.32390811 0 0 1-8.1918361 13.34239097 43.21561184 43.21561184 0 0 1-26.78288764 12.31228014 69.9985003 69.9985003 0 0 1-28.79405721-4.12044406 19.08158093 19.08158093 0 0 0-6.96551304-2.06022244c-2.06022244-1.03011082-4.12044406 0-7.16172445 1.0301108A31.29575537 31.29575537 0 0 0 108.77228122 614.9911185c-2.06022244 4.12044406-5.34676712 8.19183526-7.16172445 12.31227933a71.42103479 71.42103479 0 0 0-5.34676712 13.34239178A52.1432416 52.1432416 0 0 0 94.35072659 654.23344485a19.62116317 19.62116317 0 0 0 3.13938611 10.39921629 12.26322729 12.26322729 0 0 0 7.16172446 7.16172527 57.53906158 57.53906158 0 0 1 24.96793029 17.46283502 38.80085064 38.80085064 0 0 1 10.30111057 27.76394559 37.52547473 37.52547473 0 0 1-11.33122137 27.76394641A54.25251691 54.25251691 0 0 1 103.86699063 762.14984275q-7.7013067 1.56969306-9.27099976 12.31228015a20.74938052 20.74938052 0 0 0 1.03011082 13.34239096c2.06022244 6.18066651 3.09033325 11.3312222 5.34676712 17.46283584h-0.14715857c2.06022244 5.34676712 5.34676712 10.30111057 7.16172445 14.42155463 3.09033325 4.12044406 5.34676712 7.16172446 9.27099976 8.19183609a13.24428525 13.24428525 0 0 0 12.31228015 1.03011081 64.30836236 64.30836236 0 0 1 19.62116318-3.09033325 114.53854092 114.53854092 0 0 1 17.46283502 2.06022244 24.52645376 24.52645376 0 0 1 15.45166625 9.27099893 39.24232636 39.24232636 0 0 1 11.3312222 24.52645459 44.14761777 44.14761777 0 0 1-4.12044405 23.64350152 19.13063462 19.13063462 0 0 0-4.12044489 11.33122221 14.71587259 14.71587259 0 0 0 2.06022244 7.16172445 39.24232636 39.24232636 0 0 0 9.27099975 9.27099976 58.32390811 58.32390811 0 0 0 13.34239097 8.19183527 48.21900897 48.21900897 0 0 0 15.45166626 6.18066649 40.3705437 40.3705437 0 0 0 14.42155463 3.09033326 30.02037945 30.02037945 0 0 0 9.27099975-2.06022162 24.0359252 24.0359252 0 0 0 6.91646017-7.01456588 54.79209833 54.79209833 0 0 1 17.46283503-23.64350236 39.53664431 39.53664431 0 0 1 27.76394641-9.27099976 38.80085064 38.80085064 0 0 1 27.76394559 10.3011114 58.12769668 58.12769668 0 0 1 16.43272504 24.52645376h1.0301108a18.4438938 18.4438938 0 0 0 5.34676712 7.16172446A11.08595708 11.08595708 0 0 0 358.94211359 933.83502158a58.86348953 58.86348953 0 0 0 13.34239095-1.03011082 80.44676944 80.44676944 0 0 0 14.42155546-5.34676711 85.00869004 85.00869004 0 0 0 13.34239095-7.16172446 99.3811918 99.3811918 0 0 0 9.27099895-7.16172446 17.75715298 17.75715298 0 0 0 1.03011162-17.46283585 51.79987079 51.79987079 0 0 1-3.09033324-27.76394558 41.8911839 41.8911839 0 0 1 13.34239095-25.70372397 24.52645376 24.52645376 0 0 1 12.31228016-7.16172445c4.12044406-1.03011082 9.27099976-2.06022244 13.34239096-3.09033326a54.30156976 54.30156976 0 0 1 13.34239096 1.03011081c4.12044406 1.03011082 8.19183526 2.06022244 11.33122137 3.09033325a30.02037945 30.02037945 0 0 0 9.27099976 2.06022245 14.37250177 14.37250177 0 0 0 9.27099976-3.09033325 22.51528501 22.51528501 0 0 0 10.30111056-9.27099976 55.38073343 55.38073343 0 0 0 7.16172528-13.34239096 90.50261572 90.50261572 0 0 0 5.34676629-15.45166627 63.18014585 63.18014585 0 0 0 1.03011164-13.34239095 17.36472931 17.36472931 0 0 0-7.16172447-10.30111056 22.46623215 22.46623215 0 0 0-5.34676711-3.09033326 48.75859039 48.75859039 0 0 1-21.43612134-16.43272421 49.83775488 49.83775488 0 0 1-7.16172445-26.78288846 42.87224185 42.87224185 0 0 1 10.30111056-28.79405722 60.28602402 60.28602402 0 0 1 24.72266602-17.65904645z m-132.00137595 111.84063053a81.18256311 81.18256311 0 0 1-31.88439048 20.60222195 98.10581672 98.10581672 0 0 1-39.24232635 7.16172446 93.54389612 93.54389612 0 0 1-38.06505698-8.1918361 110.81051972 110.81051972 0 0 1-30.85427966-21.4361205 81.18256311 81.18256311 0 0 1-20.60222113-31.88439048 96.4870708 96.4870708 0 0 1-7.16172445-38.06505698 89.91398062 89.91398062 0 0 1 8.19183526-38.06505697v-0.49052857a93.2005253 93.2005253 0 0 1 21.43612133-30.85427966 94.52495407 94.52495407 0 0 1 31.88439048-20.60222113 98.10581672 98.10581672 0 0 1 39.24232636-7.16172446 93.54389612 93.54389612 0 0 1 38.06505696 8.19183527 98.84161038 98.84161038 0 0 1 28.79405723 160.79543317z" fill="#5154E0" p-id="1341"></path><path d="M207.36862732 464.79111304h209.75023498a83.09562698 83.09562698 0 0 0 82.89941556-82.75225616V173.02441474A83.09562698 83.09562698 0 0 0 417.2660217 90.125H208.25157957a83.68426126 83.68426126 0 0 0-82.89941474 82.75225616v209.01444215a82.45793903 82.45793903 0 0 0 82.01646249 82.89941473zM847.26381531 519.53415851h-209.01444214a83.09562698 83.09562698 0 0 0-82.75225617 82.60509759V811.2027511a82.45793903 82.45793903 0 0 0 82.06551535 82.89941474h209.70118296a83.04657331 83.04657331 0 0 0 82.75225616-82.89941474v-208.91633643a83.09562698 83.09562698 0 0 0-82.75225616-82.75225615zM847.41097388 90.125h-209.16160071a83.09562698 83.09562698 0 0 0-82.75225616 82.75225616v209.01444215a82.45793903 82.45793903 0 0 0 82.06551534 82.89941473h209.70118296a83.09562698 83.09562698 0 0 0 82.75225616-82.75225616V173.02441474A83.09562698 83.09562698 0 0 0 847.41097388 90.125z" fill="#5154E0" p-id="1342"></path></svg>