<?xml version="1.0" standalone="no"?><!DOCTYPE svg PUBLIC "-//W3C//DTD SVG 1.1//EN" "http://www.w3.org/Graphics/SVG/1.1/DTD/svg11.dtd"><svg t="1720577291559" class="icon" viewBox="0 0 1024 1024" version="1.1" xmlns="http://www.w3.org/2000/svg" p-id="1215" xmlns:xlink="http://www.w3.org/1999/xlink" width="200" height="200"><path d="M512 960A448 448 0 1 1 512 64a448 448 0 0 1 0 896z m226.752-497.792H484.352a22.144 22.144 0 0 0-22.144 22.144v55.296c0 12.224 9.92 22.144 22.08 22.144h154.88c12.288 0 22.144 9.92 22.144 22.08v11.072c0 36.672-29.696 66.368-66.368 66.368H384.768a22.144 22.144 0 0 1-22.08-22.08V429.056c0-36.672 29.696-66.368 66.304-66.368h309.76c12.16 0 22.08-9.92 22.08-22.144v-55.296a22.144 22.144 0 0 0-22.08-22.144h-309.76a165.888 165.888 0 0 0-165.888 165.952v309.696c0 12.224 9.92 22.144 22.144 22.144h326.272a149.312 149.312 0 0 0 149.376-149.312V484.352a22.144 22.144 0 0 0-22.144-22.144z" fill="#C71D23" p-id="1216"></path></svg>