<?xml version="1.0" standalone="no"?><!DOCTYPE svg PUBLIC "-//W3C//DTD SVG 1.1//EN" "http://www.w3.org/Graphics/SVG/1.1/DTD/svg11.dtd"><svg t="1720577296983" class="icon" viewBox="0 0 1024 1024" version="1.1" xmlns="http://www.w3.org/2000/svg" p-id="1357" xmlns:xlink="http://www.w3.org/1999/xlink" width="200" height="200"><path d="M511.59821416 74.35491084C263.19419668 74.25446416 62 275.34821416 62 523.55133916 62 719.82366084 187.859375 886.66517832 363.13839248 947.9375c23.60491084 5.92633916 19.98883916-10.84821416 19.98884004-22.29910752v-77.84598164c-136.30580332 15.97098252-141.83035752-74.22991084-150.97098252-89.296875C213.67410752 726.95535752 169.97991084 718.91964248 183.03794668 703.85267832c31.03794668-15.97098252 62.67857168 4.01785752 99.34151748 58.15848252 26.51785752 39.27455332 78.24776748 32.64508916 104.46428584 26.11607168 5.72544668-23.60491084 17.97991084-44.69866084 34.85491084-61.07142919-141.22767832-25.3125-200.08928584-111.49553584-200.08928584-213.95089249 0-49.72098252 16.37276748-95.42410752 48.515625-132.28794668-20.49107168-60.77008916 1.90848252-112.80133916 4.921875-120.53571416 58.359375-5.22321416 119.02901748 41.78571416 123.75 45.50223252 33.14732168-8.93973252 71.015625-13.66071416 113.40401748-13.66071504 42.58928584 0 80.55803584 4.921875 114.00669668 13.9620542 11.35044668-8.63839248 67.60044668-49.01785752 121.84151836-44.09598252 2.91294667 7.734375 24.81026748 58.56026748 5.52455332 118.52678584 32.54464248 36.96428584 49.11830332 83.06919668 49.11830332 132.890625 0 102.65625-59.26339248 188.93973252-200.89285664 213.85044668a128.06919668 128.06919668 0 0 1 38.27008916 91.40625v113.00223165c0.80357168 9.04017832 0 17.97991084 15.06696416 17.97991083 177.890625-59.96651748 305.95982168-228.01339248 305.95982168-425.99330332 0-248.30357168-201.29464248-449.296875-449.49776836-449.296875z" p-id="1358"></path></svg>