<?xml version="1.0" standalone="no"?><!DOCTYPE svg PUBLIC "-//W3C//DTD SVG 1.1//EN"
    "http://www.w3.org/Graphics/SVG/1.1/DTD/svg11.dtd">
<svg t="1719998390458" class="icon" viewBox="0 0 1024 1024" version="1.1" xmlns="http://www.w3.org/2000/svg" p-id="8783"
     xmlns:xlink="http://www.w3.org/1999/xlink" width="2048" height="2048">
    <path
        d="M772.096 408.4736l196.096 113.2544a76.8 76.8 0 0 1 38.4 66.5088v226.4064a76.8 76.8 0 0 1-38.4 66.56l-196.096 113.152a76.8 76.8 0 0 1-76.8 0l-196.096-113.152a76.8 76.8 0 0 1-38.4-66.56V588.288a76.8 76.8 0 0 1 38.4-66.56l196.096-113.152a76.8 76.8 0 0 1 76.8 0z m-208.896 194.56v196.864l170.496 98.4064 170.496-98.4064v-196.9152l-170.496-98.4064L563.2 602.9824z"
        fill="#FFFFFF" p-id="8784"></path>
    <path
        d="M524.8 521.728a76.8 76.8 0 0 1 38.4 66.5088v226.4064a76.8 76.8 0 0 1-38.4 66.56l-196.096 113.152a76.8 76.8 0 0 1-76.8 0l-196.096-113.152a76.8 76.8 0 0 1-38.4-66.56V588.288a76.8 76.8 0 0 1 38.4-66.56l196.096-113.152a76.8 76.8 0 0 1 76.8 0l196.096 113.152z m-404.992 81.2544v196.9152l170.496 98.4064L460.8 799.8976v-196.9152L290.304 504.576l-170.496 98.4064z"
        fill="#FFFFFF" p-id="8785"></path>
    <path
        d="M550.4 24.4736l196.096 113.2544a76.8 76.8 0 0 1 38.4 66.5088V430.592a76.8 76.8 0 0 1-38.4 66.56l-196.096 113.152a76.8 76.8 0 0 1-76.8 0l-196.096-113.152a76.8 76.8 0 0 1-38.4-66.56V204.288a76.8 76.8 0 0 1 38.4-66.56L473.6 24.576a76.8 76.8 0 0 1 76.8 0z m-208.896 194.56v196.864L512 514.304l170.496-98.4064V218.9824L512 120.576 341.504 218.9824zM171.008 632.576v137.728l119.296 68.9152L409.6 770.304v-137.728l-119.296-68.9152z"
        fill="#FFFFFF" p-id="8786"></path>
    <path d="M512 179.712L392.704 248.5248v137.728L512 455.2192l119.296-68.9152v-137.728z" fill="#FFFFFF"
          p-id="8787"></path>
</svg>
