<?xml version="1.0" standalone="no"?><!DOCTYPE svg PUBLIC "-//W3C//DTD SVG 1.1//EN"
    "http://www.w3.org/Graphics/SVG/1.1/DTD/svg11.dtd">
<svg t="1720853505448" class="icon" viewBox="0 0 1024 1024" version="1.1" xmlns="http://www.w3.org/2000/svg" p-id="1338"
     xmlns:xlink="http://www.w3.org/1999/xlink" width="200" height="200">
    <path
        d="M850.14 490.866h-63.4v-169.07c0-46.706-37.83-84.535-84.536-84.535h-169.07V173.86c0-58.33-47.34-105.669-105.67-105.669s-105.668 47.34-105.668 105.669v63.4h-169.07c-46.705 0-84.112 37.83-84.112 84.536l-0.212 160.616h63.19c62.978 0 114.122 51.144 114.122 114.122S194.57 710.656 131.592 710.656h-63.19l-0.21 160.617c0 46.705 37.829 84.535 84.534 84.535h160.616v-63.401c0-62.978 51.144-114.122 114.123-114.122s114.122 51.144 114.122 114.122v63.4h160.616c46.706 0 84.535-37.829 84.535-84.534V702.204h63.401c58.33 0 105.669-47.34 105.669-105.669s-47.34-105.67-105.668-105.67z"
        fill="#562986"
        p-id="1339"></path>
</svg>
